<svg width="44" height="44" viewBox="0 0 44 44" fill="none" xmlns="http://www.w3.org/2000/svg">
<path d="M22 0C9.86562 0 0 9.86562 0 22C0 34.1344 9.86562 44 22 44C34.1344 44 44 34.1344 44 22C44 9.86562 34.1344 0 22 0Z" fill="white"/>
<path d="M10.2812 35V30.6364H12.1648C12.4886 30.6364 12.772 30.7003 13.0149 30.8281C13.2578 30.956 13.4467 31.1357 13.5817 31.3672C13.7166 31.5987 13.7841 31.8693 13.7841 32.179C13.7841 32.4915 13.7145 32.7621 13.5753 32.9908C13.4375 33.2195 13.2436 33.3956 12.9936 33.5192C12.745 33.6428 12.4545 33.7045 12.1222 33.7045H10.9972V32.7841H11.8835C12.0227 32.7841 12.1413 32.7599 12.2393 32.7116C12.3388 32.6619 12.4148 32.5916 12.4673 32.5007C12.5213 32.4098 12.5483 32.3026 12.5483 32.179C12.5483 32.054 12.5213 31.9474 12.4673 31.8594C12.4148 31.7699 12.3388 31.7017 12.2393 31.6548C12.1413 31.6065 12.0227 31.5824 11.8835 31.5824H11.4659V35H10.2812ZM15.4119 30.6364V35H14.2358V30.6364H15.4119ZM16.9231 35.0511C16.7143 35.0511 16.5297 35.017 16.3691 34.9489C16.21 34.8793 16.085 34.7741 15.9941 34.6335C15.9032 34.4929 15.8578 34.3139 15.8578 34.0966C15.8578 33.9176 15.8883 33.7649 15.9494 33.6385C16.0105 33.5107 16.0957 33.4062 16.2051 33.3253C16.3145 33.2443 16.4416 33.1825 16.5865 33.1399C16.7328 33.0973 16.8904 33.0696 17.0595 33.0568C17.2427 33.0426 17.3897 33.0256 17.5005 33.0057C17.6127 32.9844 17.6937 32.9553 17.7434 32.9183C17.7931 32.88 17.818 32.8295 17.818 32.767V32.7585C17.818 32.6733 17.7853 32.608 17.72 32.5625C17.6547 32.517 17.5708 32.4943 17.4686 32.4943C17.3564 32.4943 17.2647 32.5192 17.1937 32.5689C17.1241 32.6172 17.0822 32.6918 17.068 32.7926H15.9856C15.9998 32.5937 16.063 32.4105 16.1752 32.2429C16.2889 32.0739 16.4544 31.9389 16.6717 31.8381C16.889 31.7358 17.1603 31.6847 17.4856 31.6847C17.72 31.6847 17.9302 31.7124 18.1163 31.7678C18.3024 31.8217 18.4608 31.8977 18.5914 31.9957C18.7221 32.0923 18.8216 32.206 18.8897 32.3366C18.9593 32.4659 18.9941 32.6065 18.9941 32.7585V35H17.8947V34.5398H17.8691C17.8038 34.6619 17.7243 34.7607 17.6305 34.8359C17.5382 34.9112 17.4324 34.9659 17.313 35C17.1951 35.0341 17.0652 35.0511 16.9231 35.0511ZM17.3066 34.3097C17.3961 34.3097 17.4799 34.2912 17.5581 34.2543C17.6376 34.2173 17.7022 34.1641 17.752 34.0945C17.8017 34.0249 17.8265 33.9403 17.8265 33.8409V33.5682C17.7953 33.581 17.7619 33.593 17.7264 33.6044C17.6923 33.6158 17.6554 33.6264 17.6156 33.6364C17.5772 33.6463 17.536 33.6555 17.492 33.6641C17.4494 33.6726 17.4047 33.6804 17.3578 33.6875C17.2669 33.7017 17.1923 33.7251 17.1341 33.7578C17.0772 33.7891 17.0346 33.8281 17.0062 33.875C16.9792 33.9205 16.9657 33.9716 16.9657 34.0284C16.9657 34.1193 16.9977 34.1889 17.0616 34.2372C17.1255 34.2855 17.2072 34.3097 17.3066 34.3097ZM20.1548 36.2273C20.0199 36.2273 19.8913 36.2166 19.7692 36.1953C19.647 36.1754 19.5398 36.1477 19.4474 36.1122L19.7031 35.277C19.7997 35.3111 19.8878 35.3331 19.9673 35.343C20.0483 35.353 20.1172 35.3473 20.174 35.326C20.2322 35.3047 20.2741 35.2642 20.2997 35.2045L20.3253 35.1449L19.1747 31.7273H20.402L20.9304 33.9943H20.9645L21.5014 31.7273H22.7372L21.544 35.2727C21.4844 35.4531 21.3977 35.6151 21.2841 35.7585C21.1719 35.9034 21.0241 36.0178 20.8409 36.1016C20.6577 36.1854 20.429 36.2273 20.1548 36.2273ZM23.0547 35V30.6364H24.2308V32.2983H24.2479C24.2905 32.1875 24.353 32.0859 24.4354 31.9936C24.5178 31.8999 24.62 31.8253 24.7422 31.7699C24.8643 31.7131 25.0064 31.6847 25.1683 31.6847C25.3842 31.6847 25.5895 31.7422 25.7841 31.8572C25.9801 31.9723 26.1392 32.1534 26.2614 32.4006C26.3849 32.6477 26.4467 32.9687 26.4467 33.3636C26.4467 33.7415 26.3878 34.0547 26.2699 34.3033C26.1534 34.5518 25.9972 34.7372 25.8011 34.8594C25.6065 34.9815 25.3928 35.0426 25.1598 35.0426C25.0064 35.0426 24.8693 35.0178 24.7486 34.968C24.6293 34.9169 24.527 34.848 24.4418 34.7614C24.358 34.6733 24.2933 34.5739 24.2479 34.4631H24.2223V35H23.0547ZM24.2053 33.3636C24.2053 33.5227 24.2259 33.6605 24.267 33.777C24.3097 33.892 24.3693 33.9815 24.446 34.0455C24.5241 34.108 24.6172 34.1392 24.7251 34.1392C24.8331 34.1392 24.9247 34.1087 25 34.0476C25.0767 33.9851 25.1349 33.8963 25.1747 33.7812C25.2159 33.6648 25.2365 33.5256 25.2365 33.3636C25.2365 33.2017 25.2159 33.0632 25.1747 32.9482C25.1349 32.8317 25.0767 32.7429 25 32.6818C24.9247 32.6193 24.8331 32.5881 24.7251 32.5881C24.6172 32.5881 24.5241 32.6193 24.446 32.6818C24.3693 32.7429 24.3097 32.8317 24.267 32.9482C24.2259 33.0632 24.2053 33.2017 24.2053 33.3636ZM28.5156 35.0597C28.1605 35.0597 27.8565 34.9893 27.6037 34.8487C27.3509 34.7067 27.157 34.5092 27.022 34.2564C26.8871 34.0021 26.8196 33.7074 26.8196 33.3722C26.8196 33.0369 26.8871 32.7429 27.022 32.4901C27.157 32.2358 27.3509 32.0384 27.6037 31.8977C27.8565 31.7557 28.1605 31.6847 28.5156 31.6847C28.8707 31.6847 29.1747 31.7557 29.4276 31.8977C29.6804 32.0384 29.8743 32.2358 30.0092 32.4901C30.1442 32.7429 30.2116 33.0369 30.2116 33.3722C30.2116 33.7074 30.1442 34.0021 30.0092 34.2564C29.8743 34.5092 29.6804 34.7067 29.4276 34.8487C29.1747 34.9893 28.8707 35.0597 28.5156 35.0597ZM28.5241 34.1903C28.6236 34.1903 28.7095 34.157 28.782 34.0902C28.8544 34.0234 28.9105 33.9283 28.9503 33.8047C28.9901 33.6811 29.0099 33.5341 29.0099 33.3636C29.0099 33.1918 28.9901 33.0447 28.9503 32.9226C28.9105 32.799 28.8544 32.7038 28.782 32.6371C28.7095 32.5703 28.6236 32.5369 28.5241 32.5369C28.419 32.5369 28.3288 32.5703 28.2536 32.6371C28.1783 32.7038 28.1207 32.799 28.081 32.9226C28.0412 33.0447 28.0213 33.1918 28.0213 33.3636C28.0213 33.5341 28.0412 33.6811 28.081 33.8047C28.1207 33.9283 28.1783 34.0234 28.2536 34.0902C28.3288 34.157 28.419 34.1903 28.5241 34.1903ZM31.3052 36.2273C31.1703 36.2273 31.0417 36.2166 30.9196 36.1953C30.7974 36.1754 30.6902 36.1477 30.5978 36.1122L30.8535 35.277C30.9501 35.3111 31.0382 35.3331 31.1177 35.343C31.1987 35.353 31.2676 35.3473 31.3244 35.326C31.3826 35.3047 31.4245 35.2642 31.4501 35.2045L31.4757 35.1449L30.3251 31.7273H31.5524L32.0808 33.9943H32.1149L32.6518 31.7273H33.8876L32.6944 35.2727C32.6348 35.4531 32.5481 35.6151 32.4345 35.7585C32.3223 35.9034 32.1745 36.0178 31.9913 36.1016C31.8081 36.1854 31.5794 36.2273 31.3052 36.2273Z" fill="black"/>
<mask id="path-3-inside-1_61_393" fill="white">
<path d="M25.9236 15.966C26.6964 16.0849 27.2314 16.4416 27.5287 16.9172C27.8259 17.3928 28.0043 18.225 28.0043 19.2951C28.0043 21.4352 27.3503 23.2187 26.0425 24.586C24.7346 25.9533 23.0701 26.6666 21.0488 26.6666C19.4697 26.6666 18.0069 26.1094 16.828 25.0615C15.4568 23.8274 14.2878 21.3177 15.5202 19.5923C15.8174 19.1762 16.3525 18.9384 17.0064 18.7601C16.8875 18.4628 16.7686 18.225 16.7091 17.9872C16.4938 17.3413 16.6954 16.812 17.1847 16.3227C17.6121 15.8953 18.1815 15.5849 18.7898 15.7877C18.9682 15.8471 19.1465 15.9066 19.3843 16.0849C18.8493 14.3015 18.3142 12.8153 18.017 11.8046C17.7198 10.7941 17.6009 10.1401 17.6009 9.72399C17.6009 8.79169 18.1522 8 19.1465 8C20.276 8 20.6665 9.61374 22.1182 13.388C22.3526 13.9973 22.535 14.4798 22.6539 14.8365C22.7728 14.5987 22.8917 14.1826 23.0701 13.707C24.3185 10.1401 25.078 8.53815 26.126 8.41925C26.5395 8.37234 26.9936 8.47559 27.2909 8.77283C27.5287 9.07007 27.7704 9.49044 27.707 9.96179C27.4072 12.1927 26.5966 14.1487 25.9236 15.966ZM16.7686 21.1974C16.8875 21.3163 17.0658 21.5541 17.2442 21.8514C17.7792 22.6242 18.3142 23.0403 18.7898 23.0403C19.5057 23.0403 19.3981 22.33 19.1465 21.9108C18.7225 21.204 18.1837 20.5319 17.6009 19.949C17.0949 19.5695 16.6614 19.5925 16.2336 20.1274C15.3823 21.1915 16.1316 22.8718 16.8875 23.7537C17.4225 24.3482 18.017 24.8832 18.7898 25.2399C19.5626 25.5966 20.3355 25.7749 21.2866 25.7749C22.9512 25.7749 24.3185 25.1804 25.448 23.932C26.5775 22.6836 27.1125 21.138 27.1125 19.2356C27.1125 18.6412 27.0531 18.225 26.9936 17.8683C26.8189 16.82 25.3958 16.5797 24.5563 16.3821C23.5457 16.1443 22.4756 16.0254 21.4055 16.0254C20.9172 16.0254 20.5733 16.2157 20.5733 16.7388C20.5733 17.3333 20.8705 17.7494 21.5244 17.9872C22.1784 18.225 23.2484 18.4034 24.6752 18.4034C25.1295 18.4034 25.8213 18.4973 25.6263 18.9384C25.4687 19.2951 24.2935 19.5219 23.724 19.949C22.8369 20.5404 22 21.6947 22 22.8025C22 23.4802 22.6154 24.667 22.3567 24.7643C21.3221 25.1533 21.1677 22.8346 21.1677 22.3269C20.8957 22.599 20.5635 22.5677 20.276 22.4458C20.276 22.9686 20.4343 23.3576 19.9788 23.8131C19.2217 24.5702 18.0771 23.9861 17.4225 23.397C16.8875 22.862 16.557 22.3618 16.557 21.8268C16.557 21.6013 16.6032 21.3628 16.7686 21.1974ZM21.0488 21.3163C21.7093 20.6558 20.3656 18.6269 19.9788 18.0467C19.5594 17.3128 18.727 16.326 17.8981 17.155C17.4123 17.6407 17.6605 18.2057 17.8981 18.7601C18.1359 19.1762 18.3737 19.5923 18.7304 20.0679C19.0998 20.5605 20.2735 22.0917 21.0488 21.3163ZM21.8811 15.3121L20.4544 11.3291C20.0977 10.3185 19.8599 9.6051 19.6221 9.30786C19.2228 8.64238 18.3737 8.75632 18.3737 9.6051C18.3737 10.0212 18.552 10.6752 18.8493 11.6263C19.1465 12.5775 19.6221 13.8958 20.1182 15.4817C20.353 15.012 21.4775 15.2448 21.8811 15.3121ZM23.3079 19.1762C22.653 19.1762 21.897 19.0637 21.2866 18.8195C21.5088 19.3749 21.7628 19.8927 21.8811 20.484C22.2757 19.9579 22.7867 19.5671 23.3079 19.1762ZM25.0319 15.7282C25.6263 14.1826 26.0425 12.8747 26.3992 11.8641C26.6964 10.8535 26.8748 10.259 26.8748 10.0212C26.8748 9.0411 25.9739 9.13065 25.5669 9.84289C25.3291 10.259 25.0319 10.8535 24.7346 11.7452L23.4268 15.431L25.0319 15.7282Z"/>
</mask>
<g filter="url(#filter0_i_61_393)">
<path d="M25.9236 15.966C26.6964 16.0849 27.2314 16.4416 27.5287 16.9172C27.8259 17.3928 28.0043 18.225 28.0043 19.2951C28.0043 21.4352 27.3503 23.2187 26.0425 24.586C24.7346 25.9533 23.0701 26.6666 21.0488 26.6666C19.4697 26.6666 18.0069 26.1094 16.828 25.0615C15.4568 23.8274 14.2878 21.3177 15.5202 19.5923C15.8174 19.1762 16.3525 18.9384 17.0064 18.7601C16.8875 18.4628 16.7686 18.225 16.7091 17.9872C16.4938 17.3413 16.6954 16.812 17.1847 16.3227C17.6121 15.8953 18.1815 15.5849 18.7898 15.7877C18.9682 15.8471 19.1465 15.9066 19.3843 16.0849C18.8493 14.3015 18.3142 12.8153 18.017 11.8046C17.7198 10.7941 17.6009 10.1401 17.6009 9.72399C17.6009 8.79169 18.1522 8 19.1465 8C20.276 8 20.6665 9.61374 22.1182 13.388C22.3526 13.9973 22.535 14.4798 22.6539 14.8365C22.7728 14.5987 22.8917 14.1826 23.0701 13.707C24.3185 10.1401 25.078 8.53815 26.126 8.41925C26.5395 8.37234 26.9936 8.47559 27.2909 8.77283C27.5287 9.07007 27.7704 9.49044 27.707 9.96179C27.4072 12.1927 26.5966 14.1487 25.9236 15.966ZM16.7686 21.1974C16.8875 21.3163 17.0658 21.5541 17.2442 21.8514C17.7792 22.6242 18.3142 23.0403 18.7898 23.0403C19.5057 23.0403 19.3981 22.33 19.1465 21.9108C18.7225 21.204 18.1837 20.5319 17.6009 19.949C17.0949 19.5695 16.6614 19.5925 16.2336 20.1274C15.3823 21.1915 16.1316 22.8718 16.8875 23.7537C17.4225 24.3482 18.017 24.8832 18.7898 25.2399C19.5626 25.5966 20.3355 25.7749 21.2866 25.7749C22.9512 25.7749 24.3185 25.1804 25.448 23.932C26.5775 22.6836 27.1125 21.138 27.1125 19.2356C27.1125 18.6412 27.0531 18.225 26.9936 17.8683C26.8189 16.82 25.3958 16.5797 24.5563 16.3821C23.5457 16.1443 22.4756 16.0254 21.4055 16.0254C20.9172 16.0254 20.5733 16.2157 20.5733 16.7388C20.5733 17.3333 20.8705 17.7494 21.5244 17.9872C22.1784 18.225 23.2484 18.4034 24.6752 18.4034C25.1295 18.4034 25.8213 18.4973 25.6263 18.9384C25.4687 19.2951 24.2935 19.5219 23.724 19.949C22.8369 20.5404 22 21.6947 22 22.8025C22 23.4802 22.6154 24.667 22.3567 24.7643C21.3221 25.1533 21.1677 22.8346 21.1677 22.3269C20.8957 22.599 20.5635 22.5677 20.276 22.4458C20.276 22.9686 20.4343 23.3576 19.9788 23.8131C19.2217 24.5702 18.0771 23.9861 17.4225 23.397C16.8875 22.862 16.557 22.3618 16.557 21.8268C16.557 21.6013 16.6032 21.3628 16.7686 21.1974ZM21.0488 21.3163C21.7093 20.6558 20.3656 18.6269 19.9788 18.0467C19.5594 17.3128 18.727 16.326 17.8981 17.155C17.4123 17.6407 17.6605 18.2057 17.8981 18.7601C18.1359 19.1762 18.3737 19.5923 18.7304 20.0679C19.0998 20.5605 20.2735 22.0917 21.0488 21.3163ZM21.8811 15.3121L20.4544 11.3291C20.0977 10.3185 19.8599 9.6051 19.6221 9.30786C19.2228 8.64238 18.3737 8.75632 18.3737 9.6051C18.3737 10.0212 18.552 10.6752 18.8493 11.6263C19.1465 12.5775 19.6221 13.8958 20.1182 15.4817C20.353 15.012 21.4775 15.2448 21.8811 15.3121ZM23.3079 19.1762C22.653 19.1762 21.897 19.0637 21.2866 18.8195C21.5088 19.3749 21.7628 19.8927 21.8811 20.484C22.2757 19.9579 22.7867 19.5671 23.3079 19.1762ZM25.0319 15.7282C25.6263 14.1826 26.0425 12.8747 26.3992 11.8641C26.6964 10.8535 26.8748 10.259 26.8748 10.0212C26.8748 9.0411 25.9739 9.13065 25.5669 9.84289C25.3291 10.259 25.0319 10.8535 24.7346 11.7452L23.4268 15.431L25.0319 15.7282Z" fill="black"/>
</g>
<path d="M25.9236 15.966L-252.591 -87.1763L-378.999 254.161L-19.2402 309.512L25.9236 15.966ZM27.5287 16.9172L279.396 -140.473L279.384 -140.492L279.372 -140.511L27.5287 16.9172ZM26.0425 24.586L240.663 229.883L240.671 229.875L26.0425 24.586ZM16.828 25.0615L-181.856 245.818L-181.173 246.433L-180.487 247.043L16.828 25.0615ZM15.5202 19.5923L-226.16 -153.034L-226.161 -153.033L15.5202 19.5923ZM17.0064 18.7601L95.1374 305.299L416.436 217.69L292.77 -91.5269L17.0064 18.7601ZM16.7091 17.9872L304.827 -54.1029L302.066 -65.1394L298.468 -75.9324L16.7091 17.9872ZM18.7898 15.7877L-75.1437 297.542L-75.0894 297.56L-75.0351 297.578L18.7898 15.7877ZM19.3843 16.0849L-158.784 253.709L563.122 794.987L303.86 -69.2545L19.3843 16.0849ZM18.017 11.8046L302.954 -71.982L302.951 -71.9919L18.017 11.8046ZM22.1182 13.388L-255.084 120.008L-255.081 120.017L-255.077 120.026L22.1182 13.388ZM22.6539 14.8365L-259.105 108.756L-32.3629 788.982L288.299 147.659L22.6539 14.8365ZM23.0701 13.707L301.15 118.016L302.308 114.931L303.396 111.82L23.0701 13.707ZM26.126 8.41925L-7.35275 -286.688L-7.35509 -286.688L26.126 8.41925ZM27.2909 8.77283L259.206 -176.765L248.922 -189.62L237.28 -201.259L27.2909 8.77283ZM27.707 9.96179L-266.642 -29.6303L-266.645 -29.6123L-266.647 -29.5943L27.707 9.96179ZM16.7686 21.1974L226.779 -188.813L16.7686 -398.824L-193.242 -188.813L16.7686 21.1974ZM17.2442 21.8514L-237.424 174.669L-232.451 182.957L-226.949 190.904L17.2442 21.8514ZM19.1465 21.9108L-235.542 174.695L-235.525 174.723L-235.507 174.752L19.1465 21.9108ZM17.6009 19.949L227.63 -190.044L212.697 -204.979L195.801 -217.651L17.6009 19.949ZM16.2336 20.1274L248.144 205.671L248.161 205.651L248.177 205.63L16.2336 20.1274ZM16.8875 23.7537L-208.613 217.037L-206.279 219.76L-203.88 222.426L16.8875 23.7537ZM26.9936 17.8683L-265.966 66.6903L-265.962 66.7125L-265.959 66.7348L26.9936 17.8683ZM24.5563 16.3821L92.604 -272.717L92.5941 -272.72L92.5842 -272.722L24.5563 16.3821ZM21.5244 17.9872L-79.9801 297.103L-79.9733 297.106L-79.9664 297.108L21.5244 17.9872ZM25.6263 18.9384L-246.014 -101.147L-246.026 -101.119L-246.039 -101.091L25.6263 18.9384ZM23.724 19.949L188.47 267.068L195.326 262.498L201.917 257.554L23.724 19.949ZM22.3567 24.7643L126.882 302.763L126.896 302.758L126.911 302.752L22.3567 24.7643ZM21.1677 22.3269H318.168V-694.881L-188.882 -187.645L21.1677 22.3269ZM20.276 22.4458L136.213 -250.991L-276.724 -426.076V22.4458H20.276ZM17.4225 23.397L-192.588 233.408L-187.062 238.934L-181.253 244.162L17.4225 23.397ZM21.0488 21.3163L-188.962 -188.694L-188.969 -188.688L-188.975 -188.681L21.0488 21.3163ZM19.9788 18.0467L-237.885 165.408L-232.812 174.285L-227.14 182.793L19.9788 18.0467ZM17.8981 17.155L227.887 227.187L227.904 227.17L227.921 227.153L17.8981 17.155ZM17.8981 18.7601L-255.088 135.754L-248.394 151.373L-239.962 166.127L17.8981 18.7601ZM18.7304 20.0679L256.342 -158.117L256.336 -158.124L256.33 -158.132L18.7304 20.0679ZM21.8811 15.3121L-26.9689 308.267L472.103 391.487L301.485 -84.8404L21.8811 15.3121ZM20.4544 11.3291L-259.613 110.179L-259.383 110.831L-259.15 111.482L20.4544 11.3291ZM19.6221 9.30786L-235.051 162.116L-224.773 179.247L-212.293 194.846L19.6221 9.30786ZM18.8493 11.6263L302.334 -76.9478L302.329 -76.9626L302.325 -76.9775L18.8493 11.6263ZM20.1182 15.4817L-263.337 104.152L-43.4885 806.948L285.774 148.282L20.1182 15.4817ZM23.3079 19.1762L201.508 256.776L914.308 -277.824H23.3079V19.1762ZM21.2866 18.8195L131.605 -256.932L-511.92 -514.384L-254.464 129.14L21.2866 18.8195ZM21.8811 20.484L-269.348 78.7495L-139.049 730.023L259.476 198.691L21.8811 20.484ZM25.0319 15.7282L-29.0414 307.764L213.647 352.7L302.239 122.335L25.0319 15.7282ZM26.3992 11.8641L306.466 110.716L309.101 103.251L311.334 95.6561L26.3992 11.8641ZM25.5669 9.84289L283.434 157.199L283.434 157.198L25.5669 9.84289ZM24.7346 11.7452L304.637 111.061L305.588 108.38L306.488 105.682L24.7346 11.7452ZM23.4268 15.431L-256.476 -83.8843L-372.853 244.104L-30.6465 307.467L23.4268 15.431ZM-19.2402 309.512C-88.7883 298.812 -171.284 259.18 -224.315 174.346L279.372 -140.511C225.747 -226.297 142.181 -266.642 71.0875 -277.58L-19.2402 309.512ZM-224.339 174.308C-249.28 134.395 -258.972 97.649 -263.144 77.1739C-267.804 54.2973 -268.996 34.4242 -268.996 19.2951H325.004C325.004 -0.816512 323.928 -69.2105 279.396 -140.473L-224.339 174.308ZM-268.996 19.2951C-268.996 -42.9521 -247.952 -118.636 -188.586 -180.703L240.671 229.875C302.653 165.073 325.004 85.8225 325.004 19.2951H-268.996ZM-188.578 -180.711C-162.924 -207.531 -130.275 -231.291 -91.1058 -247.727C-52.1193 -264.086 -13.5055 -270.333 21.0488 -270.333V323.667C101.308 323.667 181.407 291.831 240.663 229.883L-188.578 -180.711ZM21.0488 -270.333C92.3008 -270.333 161.025 -244.136 214.143 -196.92L-180.487 247.043C-125.011 296.355 -53.3613 323.667 21.0488 323.667V-270.333ZM215.512 -195.695C252.499 -162.406 282.49 -118.229 298.846 -65.5392C315.533 -11.7819 328.301 92.6756 257.201 192.217L-226.161 -153.033C-298.493 -51.7656 -285.757 54.8095 -268.45 110.562C-251.475 165.246 -220.215 211.295 -181.856 245.818L215.512 -195.695ZM257.2 192.218C223.286 239.699 182.883 266.86 155.082 281.578C128.266 295.773 105.331 302.52 95.1374 305.299L-61.1246 -267.779C-70.2299 -265.296 -161.535 -243.509 -226.16 -153.034L257.2 192.218ZM292.77 -91.5269C291.534 -94.6178 290.505 -97.0369 290.293 -97.5347C289.706 -98.9184 290.678 -96.6432 291.462 -94.7383C293.01 -90.9793 299.54 -75.2318 304.827 -54.1029L-271.409 90.0773C-266.063 111.444 -259.443 127.429 -257.791 131.441C-256.955 133.472 -255.927 135.878 -256.457 134.629C-256.611 134.267 -257.581 131.989 -258.758 129.047L292.77 -91.5269ZM298.468 -75.9324C316.081 -23.0944 320.352 40.2874 300.47 104.698C282.035 164.417 249.22 204.309 227.195 226.333L-192.826 -193.688C-215.34 -171.174 -248.5 -130.773 -267.104 -70.5054C-287.156 -5.5464 -282.878 58.4229 -265.05 111.907L298.468 -75.9324ZM227.195 226.333C198.818 254.711 85.2707 351.022 -75.1437 297.542L112.723 -265.967C-48.9077 -319.852 -163.593 -222.921 -192.826 -193.688L227.195 226.333ZM-75.0351 297.578C-73.8777 297.964 -88.5492 293.331 -105.402 285.553C-124.256 276.85 -142.155 266.177 -158.784 253.709L197.552 -221.539C158.195 -251.048 121.167 -263.155 112.615 -266.003L-75.0351 297.578ZM303.86 -69.2545C303.077 -71.8619 302.375 -74.0958 301.826 -75.8081C301.293 -77.4708 300.842 -78.8384 300.659 -79.394C300.615 -79.529 300.566 -79.6776 300.549 -79.7273C300.524 -79.8041 300.522 -79.8091 300.528 -79.7911C300.534 -79.7744 300.642 -79.4463 300.795 -78.9741C300.948 -78.5013 301.221 -77.6558 301.56 -76.5733C301.895 -75.5025 302.383 -73.9208 302.954 -71.982L-266.919 95.5912C-266.275 97.7827 -265.705 99.632 -265.282 100.985C-264.854 102.349 -264.487 103.49 -264.233 104.272C-263.98 105.054 -263.766 105.705 -263.65 106.057C-263.589 106.243 -263.534 106.409 -263.502 106.506C-263.461 106.63 -263.451 106.659 -263.436 106.704C-263.31 107.085 -264.121 104.658 -265.091 101.424L303.86 -69.2545ZM302.951 -71.9919C304.498 -66.7304 306.954 -57.8209 309.172 -46.4836C311.158 -36.3315 314.601 -16.1277 314.601 9.72399H-279.399C-279.399 55.0781 -268.567 89.9906 -266.917 95.6012L302.951 -71.9919ZM314.601 9.72399C314.601 65.1173 298.382 135.999 246.14 198.674C188.903 267.343 105.094 305 19.1465 305V-289C-67.795 -289 -152.377 -250.947 -210.139 -181.649C-262.905 -118.345 -279.399 -46.6016 -279.399 9.72399H314.601ZM19.1465 305C-64.5792 305 -136.455 270.129 -186.236 222.142C-224.73 185.037 -242.914 146.81 -247.221 137.842C-250.624 130.755 -253.006 125.04 -254.206 122.094C-255.451 119.039 -256.33 116.72 -256.535 116.178C-258.091 112.072 -255.4 119.186 -255.084 120.008L299.321 -93.232C299.601 -92.5033 299.788 -92.001 299.752 -92.0992C299.473 -92.8441 299.938 -91.6024 299.544 -92.6553C299.428 -92.9627 299.204 -93.5617 298.936 -94.27C298.735 -94.7996 294.557 -106.136 288.244 -119.284C283.517 -129.128 264.933 -167.994 226.003 -205.52C175.785 -253.927 103.437 -289 19.1465 -289V305ZM-255.077 120.026C-255.092 119.988 -255.181 119.756 -255.31 119.417C-255.438 119.082 -255.662 118.489 -255.945 117.729C-256.223 116.98 -256.638 115.855 -257.133 114.468C-257.62 113.107 -258.309 111.145 -259.105 108.756L304.413 -79.0831C302.815 -83.8779 301.418 -87.6618 300.804 -89.3148C300.114 -91.1706 299.523 -92.7055 299.314 -93.2501L-255.077 120.026ZM288.299 147.659C294.408 135.44 298.344 125.423 300.028 121.035C301.881 116.205 303.215 112.338 303.496 111.527C303.682 110.99 303.867 110.45 303.815 110.6C303.815 110.601 303.777 110.712 303.725 110.861C303.671 111.018 303.589 111.256 303.487 111.549C303.097 112.671 302.27 115.031 301.15 118.016L-255.01 -90.6023C-256.219 -87.3795 -257.128 -84.7885 -257.594 -83.4476C-257.822 -82.7928 -258.005 -82.2585 -258.032 -82.1789C-258.119 -81.925 -257.969 -82.3645 -257.816 -82.8049C-257.602 -83.4228 -256.332 -87.1114 -254.54 -91.7821C-252.917 -96.0099 -249.041 -105.886 -242.991 -117.986L288.299 147.659ZM303.396 111.82C303.093 112.688 301.653 116.808 299.44 122.306C297.506 127.108 292.577 139.056 284.494 153.653C277.332 166.586 259.899 196.117 228.238 225.723C192.7 258.956 136.023 294.856 59.6071 303.526L-7.35509 -286.688C-163.766 -268.942 -228.665 -145.819 -235.147 -134.113C-243.708 -118.655 -249.126 -105.63 -251.586 -99.5201C-254.325 -92.7152 -256.328 -87.0571 -257.256 -84.406L303.396 111.82ZM59.6048 303.526C-1.47191 310.455 -101.237 300.25 -182.699 218.805L237.28 -201.259C155.224 -283.299 54.5509 -293.711 -7.35275 -286.688L59.6048 303.526ZM-204.624 194.311C-215.426 180.809 -233.153 156.307 -247.309 121.674C-262.006 85.7166 -275.071 33.0353 -266.642 -29.6303L322.056 49.5539C338.742 -74.4981 274.259 -157.95 259.206 -176.765L-204.624 194.311ZM-266.647 -29.5943C-263.638 -51.9877 -258.555 -69.3107 -255.43 -78.9016C-253.881 -83.6547 -252.562 -87.2396 -252.098 -88.495C-251.872 -89.105 -251.692 -89.581 -251.811 -89.2661C-251.838 -89.1927 -252.199 -88.2352 -252.591 -87.1763L304.439 119.108C304.215 119.713 304.027 120.212 304.173 119.822C304.229 119.673 304.585 118.729 304.986 117.645C305.801 115.442 307.467 110.888 309.34 105.14C313.114 93.5587 318.752 74.1422 322.061 49.5179L-266.647 -29.5943ZM-193.242 231.208C-201.421 223.029 -207.65 215.836 -211.704 210.95C-216.014 205.755 -219.624 201.04 -222.529 197.077C-228.273 189.243 -233.201 181.706 -237.424 174.669L271.912 -130.966C266.214 -140.463 251.55 -164.043 226.779 -188.813L-193.242 231.208ZM-226.949 190.904C-216.018 206.693 -195.7 232.955 -163.367 257.897C-132.094 282.021 -69.3885 320.04 18.7898 320.04V-273.96C106.493 -273.96 168.693 -236.148 199.445 -212.426C231.258 -187.885 251.042 -162.217 261.438 -147.201L-226.949 190.904ZM18.7898 320.04C67.0628 320.04 142.359 307.609 210.749 249.884C280.213 191.253 306.329 116.522 313.646 62.4815C325.985 -28.6527 293.685 -97.8006 273.8 -130.93L-235.507 174.752C-255.14 142.041 -287.26 73.4583 -274.984 -17.2159C-267.698 -71.0268 -241.674 -145.553 -172.383 -204.038C-104.166 -261.617 -29.1252 -273.96 18.7898 -273.96V320.04ZM273.835 -130.873C259.594 -154.612 243.46 -174.211 227.63 -190.044L-192.428 229.942C-207.092 215.275 -222.149 197.021 -235.542 174.695L273.835 -130.873ZM195.801 -217.651C165.428 -240.431 90.0144 -287.335 -16.1225 -275.464C-124.514 -263.342 -189.055 -198.704 -215.71 -165.375L248.177 205.63C221.95 238.424 157.84 302.783 49.8984 314.855C-55.7883 326.675 -130.732 279.949 -160.599 257.549L195.801 -217.651ZM-215.677 -165.416C-297.868 -62.6855 -284.131 48.9326 -271.173 97.9363C-257.824 148.417 -233.353 188.174 -208.613 217.037L242.389 -169.529C266.372 -141.548 290.09 -103.073 303.089 -53.9185C315.696 -6.2414 329.484 104.004 248.144 205.671L-215.677 -165.416ZM-203.88 222.426C-189.984 237.867 -157.821 270.833 -105.677 294.901L143.257 -244.421C193.855 -221.067 224.829 -189.171 237.655 -174.919L-203.88 222.426ZM-105.677 294.901C-65.3585 313.511 -22.0624 322.775 21.2866 322.775V-271.225C39.792 -271.225 60.7516 -269.448 83.2744 -264.534C105.92 -259.594 125.992 -252.39 143.257 -244.421L-105.677 294.901ZM21.2866 322.775C105.811 322.775 187.539 287.459 245.685 223.193L-194.789 -175.329C-170.425 -202.257 -137.738 -228.146 -96.242 -246.44C-54.831 -264.697 -14.0999 -271.225 21.2866 -271.225V322.775ZM245.685 223.193C304.147 158.576 324.113 82.0404 324.113 19.2356H-269.887C-269.887 -39.7644 -250.992 -113.209 -194.789 -175.329L245.685 223.193ZM324.113 19.2356C324.113 -3.79245 321.474 -21.8378 319.946 -30.9981L-265.959 66.7348C-266.403 64.0741 -267.546 57.0605 -268.451 48.0073C-269.378 38.7445 -269.887 29.1329 -269.887 19.2356H324.113ZM319.953 -30.9536C295.529 -177.512 182.978 -238.349 147.278 -254.314C113.704 -269.33 74.7096 -276.929 92.604 -272.717L-43.4914 305.482C-24.7575 309.891 -62.6205 302.511 -95.2299 287.927C-129.964 272.393 -241.717 212.2 -265.966 66.6903L319.953 -30.9536ZM92.5842 -272.722C67.9981 -278.507 44.0269 -280.975 21.4055 -280.975V313.025C0.924331 313.025 -20.9067 310.796 -43.4716 305.486L92.5842 -272.722ZM21.4055 -280.975C-9.34735 -280.975 -85.9321 -276.35 -160.153 -219.319C-248.961 -151.08 -276.427 -54.3041 -276.427 16.7388H317.573C317.573 87.2587 290.28 183.678 201.766 251.691C127.839 308.496 51.6701 313.025 21.4055 313.025V-280.975ZM-276.427 16.7388C-276.427 68.6832 -262.448 134.824 -216.801 195.69C-172.927 254.193 -118.212 283.2 -79.9801 297.103L123.029 -261.129C160.607 -247.463 214.846 -218.784 258.409 -160.696C303.743 -100.247 317.573 -34.6111 317.573 16.7388H-276.427ZM-79.9664 297.108C-35.0485 313.441 3.82429 315.403 24.6752 315.403V-278.597C36.0289 -278.597 49.3739 -277.906 64.2405 -275.812C78.005 -273.873 98.7889 -269.943 123.015 -261.134L-79.9664 297.108ZM24.6752 315.403C15.9167 315.403 -28.5661 315.866 -80.7835 295.878C-105.208 286.528 -175.782 256.325 -225.812 176.747C-289.05 76.163 -276.991 -31.0765 -246.014 -101.147L297.267 139.024C328.341 68.7328 340.387 -38.6839 277.06 -139.41C226.941 -219.129 156.202 -249.438 131.572 -258.867C78.9439 -279.013 33.8881 -278.597 24.6752 -278.597V315.403ZM-246.039 -101.091C-221.608 -156.385 -186.449 -190.515 -167.081 -207.015C-146.555 -224.501 -128.041 -235.38 -118.376 -240.725C-107.849 -246.546 -99.1864 -250.481 -94.8362 -252.402C-90.273 -254.416 -86.6694 -255.86 -85.9671 -256.142C-81.192 -258.062 -90.3133 -254.483 -97.839 -251.089C-105.01 -247.856 -128.379 -237.222 -154.469 -217.656L201.917 257.554C176.112 276.907 153.103 287.352 146.318 290.412C139.177 293.631 130.467 297.052 135.626 294.977C136.521 294.617 140.31 293.097 145.047 291.006C149.57 289.009 158.393 284.997 169.061 279.098C178.868 273.676 197.504 262.717 218.127 245.148C237.591 228.566 272.821 194.351 297.292 138.968L-246.039 -101.091ZM-141.022 -227.17C-176.91 -203.245 -206.054 -172.676 -227.741 -138.736C-248.696 -105.941 -275 -50.3372 -275 22.8025H319C319 94.8344 293.115 149.307 272.8 181.1C251.753 214.038 223.471 243.734 188.47 267.068L-141.022 -227.17ZM-275 22.8025C-275 61.3498 -267.227 90.8444 -265.502 97.5335C-263.199 106.468 -260.161 115.977 -261.507 111.616C-261.624 111.237 -262.862 107.267 -264.247 102.168C-265.426 97.8326 -268.561 86.0578 -270.984 70.6513C-272.592 60.4244 -278.854 20.7678 -269.677 -29.0856C-264.671 -56.2806 -252.915 -98.7839 -222.835 -142.811C-190.172 -190.619 -142.156 -230.673 -82.1977 -253.224L126.911 302.752C186.902 280.189 234.943 240.114 267.625 192.278C297.725 148.223 309.495 105.683 314.509 78.4454C323.701 28.5059 317.434 -11.2648 315.804 -21.6272C313.36 -37.1692 310.188 -49.1012 308.962 -53.6094C307.53 -58.8806 306.236 -63.038 306.058 -63.6142C304.59 -68.3681 307.49 -59.289 309.686 -50.7709C311.304 -44.498 319 -15.4059 319 22.8025H-275ZM-82.1684 -253.235C-33.6174 -271.489 29.5298 -280.339 97.5867 -262.431C163.577 -245.066 209.855 -208.963 238.394 -178.526C287.844 -125.785 303.503 -69.9087 307.191 -56.8496C317.322 -20.9823 318.168 8.41787 318.168 22.3269H-275.832C-275.832 36.7437 -274.91 67.5571 -264.443 104.613C-260.586 118.267 -244.695 174.682 -194.925 227.764C-166.226 258.372 -119.767 294.596 -53.5696 312.015C14.6939 329.977 78.0722 321.115 126.882 302.763L-82.1684 -253.235ZM-188.882 -187.645C-137.403 -239.143 -70.0401 -268.729 -0.474931 -273.708C61.4701 -278.142 109.758 -262.208 136.213 -250.991L-95.6611 295.882C-41.6892 318.767 108.318 355.243 231.217 232.299L-188.882 -187.645ZM-276.724 22.4458C-276.724 35.0129 -275.696 47.9212 -276.063 42.3616C-276.088 41.9825 -277.626 23.1176 -275.777 -0.260989C-273.653 -27.1169 -267.198 -61.794 -250.341 -99.0235C-233.627 -135.938 -211.506 -164.724 -190.032 -186.198L229.99 233.824C251.691 212.122 273.963 183.117 290.776 145.985C307.731 108.538 314.232 73.6458 316.374 46.5704C318.24 22.9722 316.69 3.88364 316.65 3.27036C316.268 -2.52342 317.276 10.1402 317.276 22.4458H-276.724ZM-190.032 -186.198C-93.0527 -283.177 28.3087 -280.938 96.149 -262.604C154.696 -246.781 194.447 -216.852 216.098 -197.368L-181.253 244.162C-158.948 264.235 -118.297 294.751 -58.8246 310.824C9.94094 329.408 132.253 331.56 229.99 233.824L-190.032 -186.198ZM227.433 -186.614C236.544 -177.503 256.048 -156.962 273.964 -125.949C293.197 -92.6542 313.557 -42.01 313.557 21.8268H-280.443C-280.443 148.294 -202.907 223.089 -192.588 233.408L227.433 -186.614ZM313.557 21.8268C313.557 50.3025 309.814 148.173 226.779 231.208L-193.242 -188.813C-276.608 -105.447 -280.443 -7.0998 -280.443 21.8268H313.557ZM231.06 231.327C328.288 134.098 320.421 17.2769 315.586 -18.8208C309.885 -61.3838 296.18 -92.5028 291.184 -103.472C284.626 -117.867 278.255 -128.824 274.769 -134.608C270.937 -140.966 267.665 -145.848 267.098 -146.699L-227.14 182.793C-227.514 182.232 -230.473 177.821 -233.965 172.027C-237.111 166.808 -243.114 156.508 -249.371 142.775C-254.066 132.468 -267.534 102.016 -273.156 60.0376C-277.913 24.5242 -285.86 -91.7958 -188.962 -188.694L231.06 231.327ZM277.843 -129.314C270.554 -142.068 241.327 -193.074 180.048 -232.589C144.696 -255.386 82.047 -284.72 -0.0510017 -279.578C-86.759 -274.147 -151.878 -233.095 -192.125 -192.843L227.921 227.153C188.089 266.99 123.385 307.855 37.0789 313.261C-44.6168 318.377 -106.876 289.181 -141.864 266.619C-202.415 227.573 -231.016 177.427 -237.885 165.408L277.843 -129.314ZM-192.091 -192.877C-222.795 -162.18 -249.687 -121.783 -265.364 -72.5031C-280.684 -24.3469 -281.161 19.2322 -277.449 51.6805C-271.473 103.938 -250.244 147.058 -255.088 135.754L290.884 -98.2339C285.802 -110.092 306.788 -67.5317 312.703 -15.8168C316.383 16.3602 315.921 59.6723 300.684 107.569C285.089 156.588 258.348 196.733 227.887 227.187L-192.091 -192.877ZM-239.962 166.127C-239.753 166.494 -231.483 181.45 -218.87 198.268L256.33 -158.132C268.23 -142.266 276.025 -128.141 275.759 -128.606L-239.962 166.127ZM-218.881 198.252C-217.746 199.767 -212.508 206.785 -205.217 215.19C-198.763 222.631 -185.168 237.668 -165.225 253.542C-149.494 266.064 -104.039 300.343 -34.3851 313.419C55.6474 330.32 156.942 305.455 231.073 231.314L-188.975 -188.681C-157.461 -220.199 -115.135 -248.158 -62.8234 -263.496C-11.2028 -278.632 36.806 -277.593 75.2079 -270.384C144.412 -257.392 189.405 -223.381 204.7 -211.207C224.206 -195.681 237.39 -181.07 243.496 -174.03C250.438 -166.027 255.391 -159.385 256.342 -158.117L-218.881 198.252ZM301.485 -84.8404L300.059 -88.8234L-259.15 111.482L-257.723 115.465L301.485 -84.8404ZM300.522 -87.5211C301.765 -83.9981 299.094 -91.734 296.571 -98.1791C295.006 -102.179 291.503 -110.933 286.236 -121.626C281.743 -130.748 270.691 -152.288 251.537 -176.23L-212.293 194.846C-231.328 171.053 -242.261 149.713 -246.631 140.84C-251.775 130.396 -255.153 121.939 -256.584 118.281C-258.839 112.52 -261.213 105.646 -259.613 110.179L300.522 -87.5211ZM274.295 -143.501C224.108 -227.144 110.069 -311.647 -38.2861 -282.564C-209.871 -248.928 -278.626 -97.5029 -278.626 9.6051H315.374C315.374 115.864 247.043 266.808 75.9825 300.341C-71.8485 329.321 -185.263 245.095 -235.051 162.116L274.295 -143.501ZM-278.626 9.6051C-278.626 46.179 -271.636 74.2664 -270.006 80.9356C-267.569 90.9053 -265.078 98.7855 -264.626 100.23L302.325 -76.9775C302.479 -76.484 304.733 -69.4063 307.006 -60.1055C308.237 -55.0685 310.108 -46.8501 311.74 -36.5592C313.305 -26.6913 315.374 -10.509 315.374 9.6051H-278.626ZM-264.635 100.2C-264.158 101.729 -263.738 103.032 -263.419 104.012C-263.098 104.997 -262.822 105.827 -262.629 106.406C-262.437 106.982 -262.274 107.467 -262.185 107.73C-262.139 107.866 -262.096 107.995 -262.072 108.065C-262.043 108.151 -262.032 108.184 -262.023 108.211C-261.933 108.477 -262.559 106.637 -263.337 104.152L303.573 -73.1884C302.299 -77.2595 301.188 -80.5514 300.841 -81.5789C300.796 -81.7139 300.753 -81.84 300.729 -81.9102C300.7 -81.9968 300.692 -82.0222 300.686 -82.0376C300.673 -82.0782 300.738 -81.8857 300.836 -81.5922C300.935 -81.295 301.12 -80.7364 301.356 -80.0122C301.591 -79.2921 301.931 -78.2382 302.334 -76.9478L-264.635 100.2ZM285.774 148.282C235.175 249.502 147.818 287.183 105.329 299.856C62.937 312.501 27.9889 312.421 14.4372 312.124C-12.3077 311.539 -39.4644 306.184 -26.9689 308.267L70.7312 -277.643C82.8231 -275.627 54.9023 -281.132 27.4355 -281.733C13.5229 -282.038 -21.7756 -282.092 -64.457 -269.361C-107.236 -256.601 -194.821 -218.773 -245.538 -117.318L285.774 148.282ZM23.3079 -277.824C39.3135 -277.824 55.5152 -276.504 71.7548 -273.761C87.5685 -271.089 108.338 -266.24 131.605 -256.932L-89.032 294.571C-45.2644 312.081 -5.3439 316.176 23.3079 316.176V-277.824ZM-254.464 129.14C-253.306 132.035 -252.124 134.832 -252.49 133.957C-252.515 133.897 -252.848 133.103 -253.27 132.075C-253.711 130.998 -254.388 129.327 -255.19 127.266C-258.255 119.382 -264.712 101.917 -269.348 78.7495L313.11 -37.7814C308.356 -61.5404 301.713 -79.5596 298.436 -87.9894C296.855 -92.0557 295.471 -95.3338 295.403 -95.4958C294.923 -96.6426 295.99 -94.1183 297.037 -91.5006L-254.464 129.14ZM259.476 198.691C243.932 219.415 228.603 234.109 218.32 243.122C213.188 247.62 208.869 251.084 206.136 253.226C204.741 254.319 203.594 255.197 202.845 255.766C202.126 256.313 201.573 256.727 201.508 256.776L-154.892 -218.424C-155.126 -218.249 -157.463 -216.502 -160.294 -214.283C-163.282 -211.941 -167.852 -208.274 -173.226 -203.563C-183.993 -194.125 -199.775 -178.973 -215.713 -157.723L259.476 198.691ZM302.239 122.335C304.262 117.075 305.766 112.778 306.58 110.417C306.78 109.835 306.948 109.345 307.056 109.027C307.11 108.869 307.158 108.729 307.186 108.645C307.223 108.539 307.228 108.523 307.237 108.498C307.319 108.257 306.959 109.318 306.466 110.716L-253.667 -86.9878C-254.032 -85.9535 -254.334 -85.0819 -254.542 -84.4787C-254.747 -83.8838 -254.917 -83.3845 -254.999 -83.1441C-255.04 -83.0244 -255.084 -82.8945 -255.099 -82.8517C-255.121 -82.7864 -255.125 -82.7752 -255.123 -82.7802C-255.119 -82.792 -255.059 -82.9675 -254.97 -83.2262C-254.602 -84.2938 -253.604 -87.164 -252.175 -90.8789L302.239 122.335ZM311.334 95.6561C311.345 95.6197 311.352 95.5968 311.377 95.5116C311.396 95.4445 311.429 95.3322 311.466 95.2072C311.535 94.9744 311.666 94.5265 311.822 93.9891C312.062 93.1615 312.774 90.7071 313.602 87.6221C314.289 85.0603 316.091 78.2657 317.872 69.5165C318.801 64.9576 320.12 57.9513 321.267 49.3352C322.335 41.3166 323.875 27.4048 323.875 10.0212H-270.125C-270.125 -7.30289 -268.591 -21.1441 -267.534 -29.0807C-266.397 -37.6149 -265.095 -44.5277 -264.188 -48.9817C-262.449 -57.521 -260.71 -64.0592 -260.105 -66.3164C-259.013 -70.3837 -257.771 -74.5285 -258.536 -71.9278L311.334 95.6561ZM323.875 10.0212C323.875 -32.2829 314.427 -103.488 262.316 -171.371C205.179 -245.802 120.793 -284.147 38.3027 -287.463C-105.802 -293.256 -195.712 -201.541 -232.3 -137.512L283.434 157.198C247.253 220.514 157.997 311.828 14.4443 306.058C-67.7694 302.753 -151.905 264.525 -208.861 190.331C-260.79 122.684 -270.125 51.8353 -270.125 10.0212H323.875ZM-232.3 -137.513C-241.362 -121.654 -250.002 -103.236 -257.019 -82.1915L306.488 105.682C300.066 124.943 292.021 142.172 283.434 157.199L-232.3 -137.513ZM-255.168 -87.5701L-256.476 -83.8843L303.329 114.746L304.637 111.061L-255.168 -87.5701ZM-30.6465 307.467L-29.0414 307.764L79.1053 -276.308L77.5002 -276.605L-30.6465 307.467Z" fill="black" mask="url(#path-3-inside-1_61_393)"/>
<defs>
<filter id="filter0_i_61_393" x="15" y="8" width="13.0043" height="22.6666" filterUnits="userSpaceOnUse" color-interpolation-filters="sRGB">
<feFlood flood-opacity="0" result="BackgroundImageFix"/>
<feBlend mode="normal" in="SourceGraphic" in2="BackgroundImageFix" result="shape"/>
<feColorMatrix in="SourceAlpha" type="matrix" values="0 0 0 0 0 0 0 0 0 0 0 0 0 0 0 0 0 0 127 0" result="hardAlpha"/>
<feOffset dy="4"/>
<feGaussianBlur stdDeviation="2"/>
<feComposite in2="hardAlpha" operator="arithmetic" k2="-1" k3="1"/>
<feColorMatrix type="matrix" values="0 0 0 0 0 0 0 0 0 0 0 0 0 0 0 0 0 0 0.25 0"/>
<feBlend mode="normal" in2="shape" result="effect1_innerShadow_61_393"/>
</filter>
</defs>
</svg>
